<svg height="1534" width="720" xmlns="http://www.w3.org/2000/svg">
<rect height="1534" fill="#555" width="720"></rect>
<text fill="#7f7" font-family="Courier New" font-size="12" xml:space="preserve">
<tspan x="10" y="26">15 megabytes installed</tspan>
<tspan x="10" y="42"></tspan>
<tspan x="10" y="58">node_modules</tspan>
<tspan x="10" y="74">└─┬ node-telegram-bot-api@0.27.0 </tspan>
<tspan x="10" y="90">  ├─┬ array.prototype.findindex@2.0.2 </tspan>
<tspan x="10" y="106">  │ ├─┬ define-properties@1.1.2 </tspan>
<tspan x="10" y="122">  │ │ ├── foreach@2.0.5 </tspan>
<tspan x="10" y="138">  │ │ └── object-keys@1.0.11 </tspan>
<tspan x="10" y="154">  │ └─┬ es-abstract@1.7.0 </tspan>
<tspan x="10" y="170">  │   ├─┬ es-to-primitive@1.1.1 </tspan>
<tspan x="10" y="186">  │   │ ├── is-date-object@1.0.1 </tspan>
<tspan x="10" y="202">  │   │ └── is-symbol@1.0.1 </tspan>
<tspan x="10" y="218">  │   ├── function-bind@1.1.0 </tspan>
<tspan x="10" y="234">  │   ├── is-callable@1.1.3 </tspan>
<tspan x="10" y="250">  │   └─┬ is-regex@1.0.4 </tspan>
<tspan x="10" y="266">  │     └── has@1.0.1 </tspan>
<tspan x="10" y="282">  ├─┬ bl@1.2.0 </tspan>
<tspan x="10" y="298">  │ └─┬ readable-stream@2.2.9 </tspan>
<tspan x="10" y="314">  │   ├── buffer-shims@1.0.0 </tspan>
<tspan x="10" y="330">  │   ├── core-util-is@1.0.2 </tspan>
<tspan x="10" y="346">  │   ├── inherits@2.0.3 </tspan>
<tspan x="10" y="362">  │   ├── isarray@1.0.0 </tspan>
<tspan x="10" y="378">  │   ├── process-nextick-args@1.0.7 </tspan>
<tspan x="10" y="394">  │   ├── string_decoder@1.0.0 </tspan>
<tspan x="10" y="410">  │   └── util-deprecate@1.0.2 </tspan>
<tspan x="10" y="426">  ├── bluebird@3.5.0 </tspan>
<tspan x="10" y="442">  ├─┬ debug@2.6.3 </tspan>
<tspan x="10" y="458">  │ └── ms@0.7.2 </tspan>
<tspan x="10" y="474">  ├── depd@1.1.0 </tspan>
<tspan x="10" y="490">  ├── eventemitter3@2.0.3 </tspan>
<tspan x="10" y="506">  ├── file-type@3.9.0 </tspan>
<tspan x="10" y="522">  ├── mime@1.3.4 </tspan>
<tspan x="10" y="538">  ├─┬ pump@1.0.2 </tspan>
<tspan x="10" y="554">  │ ├── end-of-stream@1.4.0 </tspan>
<tspan x="10" y="570">  │ └─┬ once@1.4.0 </tspan>
<tspan x="10" y="586">  │   └── wrappy@1.0.2 </tspan>
<tspan x="10" y="602">  ├─┬ request@2.81.0 </tspan>
<tspan x="10" y="618">  │ ├── aws-sign2@0.6.0 </tspan>
<tspan x="10" y="634">  │ ├── aws4@1.6.0 </tspan>
<tspan x="10" y="650">  │ ├── caseless@0.12.0 </tspan>
<tspan x="10" y="666">  │ ├─┬ combined-stream@1.0.5 </tspan>
<tspan x="10" y="682">  │ │ └── delayed-stream@1.0.0 </tspan>
<tspan x="10" y="698">  │ ├── extend@3.0.0 </tspan>
<tspan x="10" y="714">  │ ├── forever-agent@0.6.1 </tspan>
<tspan x="10" y="730">  │ ├─┬ form-data@2.1.4 </tspan>
<tspan x="10" y="746">  │ │ └── asynckit@0.4.0 </tspan>
<tspan x="10" y="762">  │ ├─┬ har-validator@4.2.1 </tspan>
<tspan x="10" y="778">  │ │ ├─┬ ajv@4.11.7 </tspan>
<tspan x="10" y="794">  │ │ │ ├── co@4.6.0 </tspan>
<tspan x="10" y="810">  │ │ │ └─┬ json-stable-stringify@1.0.1 </tspan>
<tspan x="10" y="826">  │ │ │   └── jsonify@0.0.0 </tspan>
<tspan x="10" y="842">  │ │ └── har-schema@1.0.5 </tspan>
<tspan x="10" y="858">  │ ├─┬ hawk@3.1.3 </tspan>
<tspan x="10" y="874">  │ │ ├── boom@2.10.1 </tspan>
<tspan x="10" y="890">  │ │ ├── cryptiles@2.0.5 </tspan>
<tspan x="10" y="906">  │ │ ├── hoek@2.16.3 </tspan>
<tspan x="10" y="922">  │ │ └── sntp@1.0.9 </tspan>
<tspan x="10" y="938">  │ ├─┬ http-signature@1.1.1 </tspan>
<tspan x="10" y="954">  │ │ ├── assert-plus@0.2.0 </tspan>
<tspan x="10" y="970">  │ │ ├─┬ jsprim@1.4.0 </tspan>
<tspan x="10" y="986">  │ │ │ ├── assert-plus@1.0.0 </tspan>
<tspan x="10" y="1002">  │ │ │ ├── extsprintf@1.0.2 </tspan>
<tspan x="10" y="1018">  │ │ │ ├── json-schema@0.2.3 </tspan>
<tspan x="10" y="1034">  │ │ │ └── verror@1.3.6 </tspan>
<tspan x="10" y="1050">  │ │ └─┬ sshpk@1.13.0 </tspan>
<tspan x="10" y="1066">  │ │   ├── asn1@0.2.3 </tspan>
<tspan x="10" y="1082">  │ │   ├── assert-plus@1.0.0 </tspan>
<tspan x="10" y="1098">  │ │   ├── bcrypt-pbkdf@1.0.1 </tspan>
<tspan x="10" y="1114">  │ │   ├─┬ dashdash@1.14.1 </tspan>
<tspan x="10" y="1130">  │ │   │ └── assert-plus@1.0.0 </tspan>
<tspan x="10" y="1146">  │ │   ├── ecc-jsbn@0.1.1 </tspan>
<tspan x="10" y="1162">  │ │   ├─┬ getpass@0.1.6 </tspan>
<tspan x="10" y="1178">  │ │   │ └── assert-plus@1.0.0 </tspan>
<tspan x="10" y="1194">  │ │   ├── jodid25519@1.0.2 </tspan>
<tspan x="10" y="1210">  │ │   ├── jsbn@0.1.1 </tspan>
<tspan x="10" y="1226">  │ │   └── tweetnacl@0.14.5 </tspan>
<tspan x="10" y="1242">  │ ├── is-typedarray@1.0.0 </tspan>
<tspan x="10" y="1258">  │ ├── isstream@0.1.2 </tspan>
<tspan x="10" y="1274">  │ ├── json-stringify-safe@5.0.1 </tspan>
<tspan x="10" y="1290">  │ ├─┬ mime-types@2.1.15 </tspan>
<tspan x="10" y="1306">  │ │ └── mime-db@1.27.0 </tspan>
<tspan x="10" y="1322">  │ ├── oauth-sign@0.8.2 </tspan>
<tspan x="10" y="1338">  │ ├── performance-now@0.2.0 </tspan>
<tspan x="10" y="1354">  │ ├── qs@6.4.0 </tspan>
<tspan x="10" y="1370">  │ ├── safe-buffer@5.0.1 </tspan>
<tspan x="10" y="1386">  │ ├── stringstream@0.0.5 </tspan>
<tspan x="10" y="1402">  │ ├─┬ tough-cookie@2.3.2 </tspan>
<tspan x="10" y="1418">  │ │ └── punycode@1.4.1 </tspan>
<tspan x="10" y="1434">  │ ├── tunnel-agent@0.6.0 </tspan>
<tspan x="10" y="1450">  │ └── uuid@3.0.1 </tspan>
<tspan x="10" y="1466">  └─┬ request-promise@4.2.0 </tspan>
<tspan x="10" y="1482">    ├─┬ request-promise-core@1.1.1 </tspan>
<tspan x="10" y="1498">    │ └── lodash@4.17.4 </tspan>
<tspan x="10" y="1514">    └── stealthy-require@1.0.0</tspan>
</text>
</svg>
